<?xml version="1.0" encoding="UTF-8"?>
<svg width="129px" height="110px" viewBox="0 0 129 110" version="1.1" xmlns="http://www.w3.org/2000/svg" xmlns:xlink="http://www.w3.org/1999/xlink">
    <!-- Generator: Sketch 45.2 (43514) - http://www.bohemiancoding.com/sketch -->
    <title>Artboard</title>
    <desc>Created with Sketch.</desc>
    <defs></defs>
    <g id="Page-1" stroke="none" stroke-width="1" fill="none" fill-rule="evenodd">
        <g id="Artboard">
            <g id="atlassian_objects-21">
                <path d="M123.816159,108.302174 L5.31427536,108.302174 C3.55347826,108.302174 2.12586957,106.874565 2.12586957,105.113768 L2.12586957,37.235 L127.004565,37.235 L127.004565,105.113768 C127.004565,106.874565 125.577754,108.302174 123.816159,108.302174" id="Fill-1" fill="#5CA5CE"></path>
                <path d="M123.816159,108.302174 L123.816159,106.707971 L5.31427536,106.707971 C4.86869565,106.707174 4.48050725,106.531812 4.18717391,106.24087 C3.89543478,105.947536 3.72086957,105.559348 3.72007246,105.113768 L3.72007246,38.8292029 L125.410362,38.8292029 L125.410362,105.113768 C125.409565,105.559348 125.235,105.947536 124.944058,106.24087 C124.649928,106.531812 124.261739,106.707174 123.816159,106.707971 L123.816159,109.896377 C126.458551,109.89558 128.597971,107.755362 128.598768,105.113768 L128.598768,37.235 C128.598768,36.8157246 128.428986,36.4052174 128.132464,36.1078986 C127.835145,35.8113768 127.424638,35.6407971 127.004565,35.6407971 L2.12586957,35.6407971 C1.7057971,35.6407971 1.29528986,35.8113768 0.997971014,36.1078986 C0.701449275,36.4052174 0.531666667,36.8157246 0.531666667,37.235 L0.531666667,105.113768 C0.532463768,107.755362 2.67188406,109.89558 5.31427536,109.896377 L123.816159,109.896377 L123.816159,108.302174" id="Fill-2" fill="#264970"></path>
                <path d="M111.062536,67.657971 L18.0678986,67.657971 C11.7572464,67.657971 6.30347826,63.9913043 3.72007246,58.6730435 L3.72007246,58.6124638 C6.89333333,63.1192754 12.1358696,66.062971 18.0678986,66.0637681 L111.062536,66.0637681 L111.062536,64.4695652 L111.062536,66.0637681 C116.994565,66.062971 122.237101,63.1192754 125.410362,58.6124638 L125.410362,58.6730435 C122.826957,63.9913043 117.373188,67.657971 111.062536,67.657971" id="Fill-3" fill="#4F92BB"></path>
                <path d="M125.410362,58.6730435 L125.410362,58.6124638 C125.441449,58.5686232 125.472536,58.5239855 125.502826,58.4793478 C125.472536,58.5447101 125.442246,58.6092754 125.410362,58.6730435 M3.72007246,58.6730435 C3.68818841,58.6092754 3.65789855,58.5447101 3.6276087,58.4801449 C3.65789855,58.5239855 3.68898551,58.5686232 3.72007246,58.6124638 L3.72007246,58.6730435" id="Fill-4" fill="#264970"></path>
                <path d="M111.062536,64.4695652 L18.0678986,64.4695652 C9.26311594,64.4695652 2.12586957,57.3323188 2.12586957,48.5275362 L2.12586957,25.0130435 C2.12586957,24.1322464 2.83927536,23.4188406 3.72007246,23.4188406 L125.410362,23.4188406 C126.291159,23.4188406 127.004565,24.1322464 127.004565,25.0130435 L127.004565,48.5275362 C127.004565,57.3323188 119.867319,64.4695652 111.062536,64.4695652" id="Fill-5" fill="#5CA5CE"></path>
                <path d="M111.062536,64.4695652 L111.062536,62.8753623 L18.0678986,62.8753623 C14.1007246,62.8745652 10.5233333,61.2715942 7.9223913,58.6730435 C5.32304348,56.0713043 3.72086957,52.4947101 3.72007246,48.5275362 L3.72007246,25.0130435 L125.410362,25.0130435 L125.410362,48.5275362 C125.409565,52.4947101 123.807391,56.0713043 121.208043,58.6730435 C118.607101,61.2715942 115.02971,62.8745652 111.062536,62.8753623 L111.062536,66.0637681 C120.748116,66.062971 128.597971,58.2131159 128.598768,48.5275362 L128.598768,25.0130435 C128.597971,23.2514493 127.171957,21.8254348 125.410362,21.8246377 L3.72007246,21.8246377 C1.95847826,21.8254348 0.532463768,23.2514493 0.531666667,25.0130435 L0.531666667,48.5275362 C0.532463768,58.2131159 8.38231884,66.062971 18.0678986,66.0637681 L111.062536,66.0637681 L111.062536,64.4695652" id="Fill-6" fill="#264970"></path>
                <polygon id="Fill-7" fill="#F4B72E" points="54.8007246 64.4695652 70.942029 64.4695652 70.942029 55.9007246 54.8007246 55.9007246"></polygon>
                <path d="M70.942029,64.4695652 L70.942029,62.8753623 L56.3949275,62.8753623 L56.3949275,57.4949275 L69.3478261,57.4949275 L69.3478261,64.4695652 L70.942029,64.4695652 L70.942029,62.8753623 L70.942029,64.4695652 L72.5362319,64.4695652 L72.5362319,55.9007246 C72.5362319,55.4806522 72.3664493,55.0701449 72.0691304,54.7736232 C71.7726087,54.4763043 71.3621014,54.3065217 70.942029,54.3065217 L54.8007246,54.3065217 C54.3806522,54.3065217 53.9701449,54.4763043 53.6736232,54.7736232 C53.3763043,55.0701449 53.2065217,55.4806522 53.2065217,55.9007246 L53.2065217,64.4695652 C53.2065217,64.8896377 53.3763043,65.3001449 53.6736232,65.5966667 C53.9701449,65.8939855 54.3806522,66.0637681 54.8007246,66.0637681 L70.942029,66.0637681 C71.3621014,66.0637681 71.7726087,65.8939855 72.0691304,65.5966667 C72.3664493,65.3001449 72.5362319,64.8896377 72.5362319,64.4695652 L70.942029,64.4695652" id="Fill-8" fill="#264970"></path>
                <polygon id="Fill-9" fill="#C8A132" points="56.3949275 62.8753623 69.3478261 62.8753623 69.3478261 60.1851449 56.3949275 60.1851449"></polygon>
                <polyline id="Fill-10" fill="#264970" points="70.942029 64.4695652 54.8007246 64.4695652 54.8007246 60.1851449 56.3949275 60.1851449 56.3949275 62.8753623 69.3478261 62.8753623 69.3478261 60.1851449 70.942029 60.1851449 70.942029 64.4695652 70.942029 62.8753623 70.942029 64.4695652"></polyline>
                <polygon id="Fill-11" fill="#F4B72E" points="54.8007246 71.3365942 70.942029 71.3365942 70.942029 64.1706522 54.8007246 64.1706522"></polygon>
                <path d="M70.942029,71.3365942 L70.942029,69.7423913 L56.3949275,69.7423913 L56.3949275,65.7648551 L69.3478261,65.7648551 L69.3478261,71.3365942 L70.942029,71.3365942 L70.942029,69.7423913 L70.942029,71.3365942 L72.5362319,71.3365942 L72.5362319,64.1706522 C72.5362319,63.7505797 72.3664493,63.3400725 72.0691304,63.0435507 C71.7726087,62.7462319 71.3621014,62.5764493 70.942029,62.5764493 L54.8007246,62.5764493 C54.3806522,62.5764493 53.9701449,62.7462319 53.6736232,63.0435507 C53.3763043,63.3400725 53.2065217,63.7505797 53.2065217,64.1706522 L53.2065217,71.3365942 C53.2065217,71.7566667 53.3763043,72.1671739 53.6736232,72.4636957 C53.9701449,72.7610145 54.3806522,72.9307971 54.8007246,72.9307971 L70.942029,72.9307971 C71.3621014,72.9307971 71.7726087,72.7610145 72.0691304,72.4636957 C72.3664493,72.1671739 72.5362319,71.7566667 72.5362319,71.3365942 L70.942029,71.3365942" id="Fill-12" fill="#264970"></path>
                <path d="M62.8713768,84.0583333 L62.8713768,84.0583333 C59.6781884,84.0583333 57.0892029,81.4701449 57.0892029,78.2761594 L57.0892029,71.1851449 L68.6535507,71.1851449 L68.6535507,78.2761594 C68.6535507,81.4701449 66.0645652,84.0583333 62.8713768,84.0583333" id="Fill-13" fill="#F4B72E"></path>
                <path d="M62.8713768,84.0583333 L62.8713768,82.4641304 C61.71,82.4633333 60.672971,81.9978261 59.9101449,81.2373913 C59.1497101,80.4745652 58.6842029,79.4375362 58.6834058,78.2761594 L58.6834058,72.7793478 L67.0593478,72.7793478 L67.0593478,78.2761594 C67.0585507,79.4375362 66.5930435,80.4745652 65.8326087,81.2373913 C65.0697826,81.9978261 64.0327536,82.4633333 62.8713768,82.4641304 L62.8713768,85.6525362 C66.9461594,85.6517391 70.2469565,82.350942 70.2477536,78.2761594 L70.2477536,71.1851449 C70.2477536,70.7650725 70.077971,70.3545652 69.7806522,70.0580435 C69.4841304,69.7607246 69.0736232,69.590942 68.6535507,69.590942 L57.0892029,69.590942 C56.6691304,69.590942 56.2586232,69.7607246 55.9621014,70.0580435 C55.6655797,70.3545652 55.495,70.7650725 55.495,71.1851449 L55.495,78.2761594 C55.4957971,82.350942 58.7965942,85.6517391 62.8713768,85.6525362 L62.8713768,84.0583333" id="Fill-14" fill="#264970"></path>
                <path d="M62.8713768,46.1362319 L62.8713768,46.1362319 C58.4139855,46.1362319 54.8007246,49.7494928 54.8007246,54.2068841 L54.8007246,55.9007246 L70.942029,55.9007246 L70.942029,54.2068841 C70.942029,49.7494928 67.3287681,46.1362319 62.8713768,46.1362319" id="Fill-15" fill="#5CA5CE"></path>
                <path d="M62.8713768,46.1362319 L62.8713768,44.542029 C57.5331884,44.5428261 53.2073188,48.8686957 53.2065217,54.2068841 L53.2065217,55.9007246 C53.2065217,56.3207971 53.3763043,56.7313043 53.6736232,57.0278261 C53.9701449,57.3251449 54.3806522,57.4949275 54.8007246,57.4949275 L70.942029,57.4949275 C71.3621014,57.4949275 71.7726087,57.3251449 72.0691304,57.0278261 C72.3664493,56.7313043 72.5362319,56.3207971 72.5362319,55.9007246 L72.5362319,54.2068841 C72.5354348,48.8686957 68.2095652,44.5428261 62.8713768,44.542029 L62.8713768,47.7304348 C64.6648551,47.7312319 66.2742029,48.4526087 67.4507246,49.6275362 C68.6256522,50.804058 69.347029,52.4134058 69.3478261,54.2068841 L69.3478261,54.3065217 L56.3949275,54.3065217 L56.3949275,54.2068841 C56.3957246,52.4134058 57.1171014,50.804058 58.292029,49.6275362 C59.4685507,48.4526087 61.0778986,47.7312319 62.8713768,47.7304348 L62.8713768,46.1362319" id="Fill-16" fill="#264970"></path>
                <path d="M123.816159,108.302174 L123.816159,106.707971 L5.31427536,106.707971 C4.86869565,106.707174 4.48050725,106.531812 4.18717391,106.24087 C3.94565217,105.997754 3.78384058,105.689275 3.73521739,105.337754 L10.4252899,99.7030435 C13.2996377,97.2822464 16.9368116,95.9550725 20.6943478,95.9550725 L108.436087,95.9550725 C112.193623,95.9550725 115.830797,97.2822464 118.705145,99.7030435 L125.395217,105.337754 C125.346594,105.689275 125.184783,105.997754 124.944058,106.24087 C124.649928,106.531812 124.261739,106.707174 123.816159,106.707971 L123.816159,108.302174" id="Fill-17" fill="#4F92BB"></path>
                <path d="M123.816159,108.302174 L5.31427536,108.302174 C4.02855072,108.302174 2.92855072,107.537754 2.42398551,106.442536 L3.73521739,105.337754 C3.78384058,105.689275 3.94565217,105.997754 4.18717391,106.24087 C4.48050725,106.531812 4.86869565,106.707174 5.31427536,106.707971 L123.816159,106.707971 L123.816159,108.302174 M123.816159,108.302174 L123.816159,106.707971 C124.261739,106.707174 124.649928,106.531812 124.944058,106.24087 C125.184783,105.997754 125.346594,105.689275 125.395217,105.337754 L126.706449,106.442536 C126.201884,107.537754 125.101884,108.302174 123.816159,108.302174" id="Fill-18" fill="#264970"></path>
                <polygon id="Fill-19" fill="#4F92BB" points="3.72007246 29.5963768 125.410362 29.5963768 125.410362 25.0130435 3.72007246 25.0130435"></polygon>
                <polyline id="Fill-20" fill="#264970" points="126.706449 29.5963768 125.410362 29.5963768 125.410362 25.0130435 3.72007246 25.0130435 3.72007246 29.5963768 2.12586957 29.5963768 2.12586957 22.6217391 126.706449 22.6217391 126.706449 29.5963768"></polyline>
                <polygon id="Fill-21" fill="#5CA5CE" points="35.8695652 23.2195652 53.0072464 23.2195652 53.0072464 19.0347826 35.8695652 19.0347826"></polygon>
                <path d="M53.0072464,23.2195652 L53.0072464,21.6253623 L37.4637681,21.6253623 L37.4637681,20.6289855 L51.4130435,20.6289855 L51.4130435,23.2195652 L53.0072464,23.2195652 L53.0072464,21.6253623 L53.0072464,23.2195652 L54.6014493,23.2195652 L54.6014493,19.0347826 C54.6014493,18.6147101 54.4316667,18.2042029 54.1343478,17.9076812 C53.8378261,17.6103623 53.4273188,17.4405797 53.0072464,17.4405797 L35.8695652,17.4405797 C35.4494928,17.4405797 35.0389855,17.6103623 34.7424638,17.9076812 C34.4451449,18.2042029 34.2753623,18.6147101 34.2753623,19.0347826 L34.2753623,23.2195652 C34.2753623,23.6396377 34.4451449,24.0501449 34.7424638,24.3466667 C35.0389855,24.6439855 35.4494928,24.8137681 35.8695652,24.8137681 L53.0072464,24.8137681 C53.4273188,24.8137681 53.8378261,24.6439855 54.1343478,24.3466667 C54.4316667,24.0501449 54.6014493,23.6396377 54.6014493,23.2195652 L53.0072464,23.2195652" id="Fill-22" fill="#264970"></path>
                <polygon id="Fill-23" fill="#5CA5CE" points="75.6050725 23.2195652 92.7427536 23.2195652 92.7427536 19.0347826 75.6050725 19.0347826"></polygon>
                <path d="M92.7427536,23.2195652 L92.7427536,21.6253623 L77.1992754,21.6253623 L77.1992754,20.6289855 L91.1485507,20.6289855 L91.1485507,23.2195652 L92.7427536,23.2195652 L92.7427536,21.6253623 L92.7427536,23.2195652 L94.3369565,23.2195652 L94.3369565,19.0347826 C94.3369565,18.6147101 94.1671739,18.2042029 93.8698551,17.9076812 C93.5733333,17.6103623 93.1628261,17.4405797 92.7427536,17.4405797 L75.6050725,17.4405797 C75.185,17.4405797 74.7744928,17.6103623 74.477971,17.9076812 C74.1806522,18.2042029 74.0108696,18.6147101 74.0108696,19.0347826 L74.0108696,23.2195652 C74.0108696,23.6396377 74.1806522,24.0501449 74.477971,24.3466667 C74.7744928,24.6439855 75.185,24.8137681 75.6050725,24.8137681 L92.7427536,24.8137681 C93.1628261,24.8137681 93.5733333,24.6439855 93.8698551,24.3466667 C94.1671739,24.0501449 94.3369565,23.6396377 94.3369565,23.2195652 L92.7427536,23.2195652" id="Fill-24" fill="#264970"></path>
                <path d="M48.9786957,18.7924638 L40.9343478,18.7924638 L40.9343478,9.74217391 C40.9343478,5.29913043 44.5356522,1.69782609 48.9786957,1.69782609 L48.9786957,18.7924638" id="Fill-25" fill="#38689D"></path>
                <path d="M48.9786957,18.7924638 L48.9786957,17.1982609 L42.5285507,17.1982609 L42.5285507,9.74217391 C42.5293478,7.95586957 43.2483333,6.35369565 44.4176812,5.18115942 C45.5902174,4.01181159 47.1923913,3.29282609 48.9786957,3.29202899 L48.9786957,1.69782609 L47.3844928,1.69782609 L47.3844928,18.7924638 L48.9786957,18.7924638 L48.9786957,17.1982609 L48.9786957,18.7924638 L50.5728986,18.7924638 L50.5728986,1.69782609 C50.5728986,1.27775362 50.4031159,0.867246377 50.1057971,0.570724638 C49.8092754,0.273405797 49.3987681,0.103623188 48.9786957,0.103623188 C43.6548551,0.10442029 39.340942,4.41833333 39.3401449,9.74217391 L39.3401449,18.7924638 C39.3401449,19.2125362 39.5099275,19.6230435 39.8072464,19.9195652 C40.1037681,20.2168841 40.5142754,20.3866667 40.9343478,20.3866667 L48.9786957,20.3866667 C49.3987681,20.3866667 49.8092754,20.2168841 50.1057971,19.9195652 C50.4031159,19.6230435 50.5728986,19.2125362 50.5728986,18.7924638 L48.9786957,18.7924638" id="Fill-26" fill="#264970"></path>
                <polygon id="Fill-27" fill="#38689D" points="80.1517391 18.7924638 88.196087 18.7924638 88.196087 9.74217391 80.1517391 9.74217391"></polygon>
                <path d="M80.1517391,18.7924638 L80.1517391,20.3866667 L88.196087,20.3866667 C88.6161594,20.3866667 89.0266667,20.2168841 89.3231884,19.9195652 C89.6205072,19.6230435 89.7902899,19.2125362 89.7902899,18.7924638 L89.7902899,9.74217391 C89.7902899,9.32289855 89.6205072,8.9115942 89.3231884,8.61507246 C89.0266667,8.31855072 88.6161594,8.14797101 88.196087,8.14797101 L80.1517391,8.14797101 C79.7316667,8.14797101 79.3211594,8.31855072 79.0246377,8.61507246 C78.7273188,8.9115942 78.5575362,9.32289855 78.5575362,9.74217391 L78.5575362,18.7924638 C78.5575362,19.2125362 78.7273188,19.6230435 79.0246377,19.9195652 C79.3211594,20.2168841 79.7316667,20.3866667 80.1517391,20.3866667 L80.1517391,18.7924638 L81.745942,18.7924638 L81.745942,11.3363768 L86.6018841,11.3363768 L86.6018841,17.1982609 L80.1517391,17.1982609 L80.1517391,18.7924638 L81.745942,18.7924638 L80.1517391,18.7924638" id="Fill-28" fill="#264970"></path>
                <path d="M40.9343478,9.74217391 L88.196087,9.74217391 C88.196087,5.29913043 84.5947826,1.69782609 80.1517391,1.69782609 L48.9786957,1.69782609 C44.5356522,1.69782609 40.9343478,5.29913043 40.9343478,9.74217391" id="Fill-29" fill="#38689D"></path>
                <path d="M40.9343478,9.74217391 L40.9343478,11.3363768 L88.196087,11.3363768 C88.6161594,11.3363768 89.0266667,11.1665942 89.3231884,10.8700725 C89.6205072,10.5727536 89.7902899,10.1622464 89.7902899,9.74217391 C89.7894928,4.41833333 85.4755797,0.10442029 80.1517391,0.103623188 L48.9786957,0.103623188 C43.6548551,0.10442029 39.340942,4.41833333 39.3401449,9.74217391 C39.3401449,10.1622464 39.5099275,10.5727536 39.8072464,10.8700725 C40.1037681,11.1665942 40.5142754,11.3363768 40.9343478,11.3363768 L40.9343478,9.74217391 L42.5285507,9.74217391 C42.5293478,7.95586957 43.2483333,6.35369565 44.4176812,5.18115942 C45.5902174,4.01181159 47.1923913,3.29282609 48.9786957,3.29202899 L80.1517391,3.29202899 C81.9380435,3.29282609 83.5402174,4.01181159 84.7127536,5.18115942 C85.8828986,6.35369565 86.601087,7.95586957 86.6018841,9.74217391 L88.196087,9.74217391 L88.196087,8.14797101 L40.9343478,8.14797101 L40.9343478,9.74217391 L42.5285507,9.74217391 L40.9343478,9.74217391" id="Fill-30" fill="#264970"></path>
            </g>
        </g>
    </g>
</svg>