<svg width="960" height="960" xmlns="http://www.w3.org/2000/svg">
 <!-- Generator: Sketch 46.2 (44496) - http://www.bohemiancoding.com/sketch -->
 <title>Artboard</title>
 <desc>Created with Sketch.</desc>

 <g>
  <title>background</title>
  <rect fill="#cccccc" id="canvas_background" height="962" width="962" y="-1" x="-1"/>
 </g>
 <g>
  <title>Layer 1</title>
  <g fill-rule="evenodd" fill="none" id="Page-1">
   <g fill="#FFFFFF" id="Artboard">
    <path id="Folder" d="m479.71397,333.550828l219.67374,0c10.29726,0 18.97352,3.52771 26.02905,10.58324c7.05553,7.05553 10.58324,15.73179 10.58324,26.02905l0,292.89833c0,9.91587 -3.62306,18.49679 -10.86927,25.74301c-7.24622,7.24622 -15.82714,10.86928 -25.74302,10.86928l-438.77542,0c-9.91588,0 -18.4968,-3.62306 -25.74302,-10.86928c-7.24621,-7.24622 -10.86927,-15.82714 -10.86927,-25.74301l0,-366.12291c0,-10.29726 3.52771,-18.97352 10.58324,-26.02905c7.05553,-7.05553 15.73179,-10.58324 26.02905,-10.58324l183.06145,0c10.29726,0 18.87818,3.52771 25.74302,10.58324c6.86484,7.05553 10.29721,15.73179 10.29721,26.02905l0,36.61229z"/>
   </g>
  </g>
 </g>
</svg>