<?xml version="1.0" encoding="UTF-8"?>
<svg width="150px" height="110px" viewBox="0 0 150 110" version="1.1" xmlns="http://www.w3.org/2000/svg" xmlns:xlink="http://www.w3.org/1999/xlink">
    <!-- Generator: Sketch 46 (44423) - http://www.bohemiancoding.com/sketch -->
    <title>Artboard</title>
    <desc>Created with Sketch.</desc>
    <defs></defs>
    <g id="Page-1" stroke="none" stroke-width="1" fill="none" fill-rule="evenodd">
        <g id="Artboard">
            <g id="atlassian_software-09" transform="translate(0.000000, 2.000000)">
                <path d="M142.647059,105.011276 L7.35294118,105.011276 C4.10441176,105.011276 1.47058824,102.368007 1.47058824,99.1078276 L1.47058824,7.60437931 C1.47058824,4.34346207 4.10441176,1.70093103 7.35294118,1.70093103 L142.647059,1.70093103 C145.895588,1.70093103 148.529412,4.34346207 148.529412,7.60437931 L148.529412,99.1078276 C148.529412,102.368007 145.895588,105.011276 142.647059,105.011276" id="Fill-1" fill="#D9DFDE"></path>
                <path d="M142.647059,105.011276 L142.647059,103.535414 L7.35294118,103.535414 C6.13014706,103.534676 5.03602941,103.041738 4.23308824,102.238131 C3.43235294,101.43231 2.94191176,100.335007 2.94117647,99.1078276 L2.94117647,7.60437931 C2.94191176,6.37646207 3.43235294,5.27915862 4.23308824,4.47333793 C5.03602941,3.66973103 6.13014706,3.17753103 7.35294118,3.1767931 L142.647059,3.1767931 C143.869853,3.17753103 144.963235,3.66973103 145.766176,4.47333793 C146.566912,5.27915862 147.058088,6.37646207 147.058824,7.60437931 L147.058824,99.1078276 C147.058088,100.335007 146.566912,101.43231 145.766176,102.238131 C144.963235,103.041738 143.869853,103.534676 142.647059,103.535414 L142.647059,106.487138 C146.708088,106.485662 149.999265,103.183421 150,99.1078276 L150,7.60437931 C149.999265,3.52804828 146.708088,0.225806897 142.647059,0.225068966 L7.35294118,0.225068966 C3.29117647,0.225806897 0.000735294118,3.52804828 0,7.60437931 L0,99.1078276 C0.000735294118,103.183421 3.29117647,106.485662 7.35294118,106.487138 L142.647059,106.487138 L142.647059,105.011276" id="Fill-2" fill="#264970"></path>
                <path d="M148.529412,16.4595517 L1.47058824,16.4595517 L1.47058824,7.60437931 C1.47058824,4.34346207 4.10441176,1.70093103 7.35294118,1.70093103 L142.647059,1.70093103 C145.895588,1.70093103 148.529412,4.34346207 148.529412,7.60437931 L148.529412,16.4595517" id="Fill-3" fill="#38689D"></path>
                <path d="M148.529412,16.4595517 L148.529412,14.9836897 L2.94117647,14.9836897 L2.94117647,7.60437931 C2.94191176,6.37646207 3.43235294,5.27915862 4.23308824,4.47333793 C5.03602941,3.66973103 6.13014706,3.17753103 7.35294118,3.1767931 L142.647059,3.1767931 C143.869853,3.17753103 144.963235,3.66973103 145.766176,4.47333793 C146.566912,5.27915862 147.058088,6.37646207 147.058824,7.60437931 L147.058824,16.4595517 L148.529412,16.4595517 L148.529412,14.9836897 L148.529412,16.4595517 L150,16.4595517 L150,7.60437931 C149.999265,3.52804828 146.708088,0.225806897 142.647059,0.225068966 L7.35294118,0.225068966 C3.29117647,0.225806897 0.000735294118,3.52804828 0,7.60437931 L0,17.9354138 L150,17.9354138 L150,16.4595517 L148.529412,16.4595517" id="Fill-4" fill="#264970"></path>
                <polygon id="Fill-5" fill="#B0BDC4" points="2.94117647 22.363 147.058824 22.363 147.058824 17.9354138 2.94117647 17.9354138"></polygon>
                <path d="M147.058824,22.363 L148.529412,22.363 L148.529412,17.9354138 L147.058824,17.9354138 L147.058824,22.363 Z M1.47058824,22.363 L2.94117647,22.363 L2.94117647,17.9354138 L1.47058824,17.9354138 L1.47058824,22.363 Z" id="Fill-6" fill="#264970"></path>
                <polygon id="Fill-7" fill="#346294" points="2.94117647 14.9836897 147.058824 14.9836897 147.058824 13.5078276 2.94117647 13.5078276"></polygon>
                <path d="M148.529412,17.9354138 L1.47058824,17.9354138 L1.47058824,13.5078276 L2.94117647,13.5078276 L2.94117647,14.9836897 L147.058824,14.9836897 L147.058824,13.5078276 L148.529412,13.5078276 L148.529412,17.9354138 M148.529412,16.4595517 L148.529412,14.9836897 L148.529412,16.4595517" id="Fill-8" fill="#264970"></path>
                <path d="M128.191176,97.5994966 L21.8088235,97.5994966 C19.9764706,97.5994966 18.4911765,96.1088759 18.4911765,94.2699517 L18.4911765,30.2168 C18.4911765,28.3778759 19.9764706,26.8872552 21.8088235,26.8872552 L128.191176,26.8872552 C130.023529,26.8872552 131.508824,28.3778759 131.508824,30.2168 L131.508824,94.2699517 C131.508824,96.1088759 130.023529,97.5994966 128.191176,97.5994966" id="Fill-9" fill="#F9FAF9"></path>
                <path d="M128.567647,97.5994966 L21.4323529,97.5994966 C19.8080882,97.5994966 18.4911765,96.2778621 18.4911765,94.6477724 L18.4911765,94.2699517 C18.4911765,96.1088759 19.9764706,97.5994966 21.8088235,97.5994966 L128.191176,97.5994966 C130.023529,97.5994966 131.508824,96.1088759 131.508824,94.2699517 L131.508824,66.2558759 L131.508824,94.6477724 C131.508824,96.2778621 130.191912,97.5994966 128.567647,97.5994966" id="Fill-10" fill="#D2D7D8"></path>
                <g id="Group-2" transform="translate(24.264706, 72.317241)">
                    <polygon id="Fill-15" fill="#C8D2D9" points="10.2941176 4.83713793 97.1139706 4.83713793 97.1139706 1.88541379 10.2941176 1.88541379"></polygon>
                    <path d="M3.36985294,6.49748276 L3.36985294,6.49748276 C1.64411765,6.49748276 0.244852941,5.0932 0.244852941,3.36127586 C0.244852941,1.62861379 1.64411765,0.225068966 3.36985294,0.225068966 C5.09632353,0.225068966 6.49485294,1.62861379 6.49485294,3.36127586 C6.49485294,5.0932 5.09632353,6.49748276 3.36985294,6.49748276" id="Fill-19" fill="#DF4C4B"></path>
                </g>
                <g id="Group" transform="translate(24.264706, 84.862069)">
                    <polygon id="Fill-20" fill="#C8D2D9" points="10.2941176 4.65265517 97.1139706 4.65265517 97.1139706 1.70093103 10.2941176 1.70093103"></polygon>
                    <path d="M0.244852941,3.1767931 C0.244852941,1.44413103 1.64411765,0.0405862069 3.36985294,0.0405862069 C5.09632353,0.0405862069 6.49485294,1.44413103 6.49485294,3.1767931 C6.49485294,4.90871724 5.09632353,6.313 3.36985294,6.313 C1.64411765,6.313 0.244852941,4.90871724 0.244852941,3.1767931 Z" id="Fill-21" fill="#55BBB6"></path>
                </g>
                <g id="Group-4" transform="translate(24.264706, 47.227586)">
                    <polygon id="Fill-15" fill="#C8D2D9" points="10.2941176 4.83713793 97.1139706 4.83713793 97.1139706 1.88541379 10.2941176 1.88541379"></polygon>
                    <path d="M3.36985294,6.49748276 L3.36985294,6.49748276 C1.64411765,6.49748276 0.244852941,5.0932 0.244852941,3.36127586 C0.244852941,1.62861379 1.64411765,0.225068966 3.36985294,0.225068966 C5.09632353,0.225068966 6.49485294,1.62861379 6.49485294,3.36127586 C6.49485294,5.0932 5.09632353,6.49748276 3.36985294,6.49748276" id="Fill-19" fill="#55BBB6"></path>
                </g>
                <g id="Group-4" transform="translate(24.264706, 34.682759)">
                    <polygon id="Fill-15" fill="#C8D2D9" points="10.2941176 4.83713793 97.1139706 4.83713793 97.1139706 1.88541379 10.2941176 1.88541379"></polygon>
                    <path d="M3.36985294,6.49748276 L3.36985294,6.49748276 C1.64411765,6.49748276 0.244852941,5.0932 0.244852941,3.36127586 C0.244852941,1.62861379 1.64411765,0.225068966 3.36985294,0.225068966 C5.09632353,0.225068966 6.49485294,1.62861379 6.49485294,3.36127586 C6.49485294,5.0932 5.09632353,6.49748276 3.36985294,6.49748276" id="Fill-19" fill="#55BBB6"></path>
                </g>
                <g id="Group-3" transform="translate(24.264706, 59.772414)">
                    <polygon id="Fill-20" fill="#C8D2D9" points="10.2941176 4.65265517 97.1139706 4.65265517 97.1139706 1.70093103 10.2941176 1.70093103"></polygon>
                    <path d="M0.244852941,3.1767931 C0.244852941,1.44413103 1.64411765,0.0405862069 3.36985294,0.0405862069 C5.09632353,0.0405862069 6.49485294,1.44413103 6.49485294,3.1767931 C6.49485294,4.90871724 5.09632353,6.313 3.36985294,6.313 C1.64411765,6.313 0.244852941,4.90871724 0.244852941,3.1767931 Z" id="Fill-21" fill="#55BBB6"></path>
                </g>
            </g>
        </g>
    </g>
</svg>